<mxfile host="app.diagrams.net" agent="Mozilla/5.0 (Windows NT 10.0; Win64; x64) AppleWebKit/537.36 (KHTML, like Gecko) Chrome/136.0.0.0 Safari/537.36" version="27.0.6">
  <diagram name="第 1 页" id="jTCOwaXRDoGzQJd69rKY">
    <mxGraphModel dx="1426" dy="743" grid="1" gridSize="10" guides="1" tooltips="1" connect="1" arrows="1" fold="1" page="1" pageScale="1" pageWidth="827" pageHeight="1169" math="0" shadow="0">
      <root>
        <mxCell id="0" />
        <mxCell id="1" parent="0" />
        <mxCell id="g9Q7MHYARDUEvGICIznO-1" value="&lt;div style=&quot;background-color: rgb(255, 255, 254); font-family: Consolas, &amp;quot;Courier New&amp;quot;, monospace; font-size: 14px; line-height: 19px; white-space: pre;&quot;&gt;ads_fin_a_p_cf_rpt_df&lt;/div&gt;&lt;div style=&quot;background-color: rgb(255, 255, 254); font-family: Consolas, &amp;quot;Courier New&amp;quot;, monospace; font-size: 14px; line-height: 19px; white-space: pre;&quot;&gt;(销售财务报表A&amp;amp;P 财务报表)&lt;/div&gt;" style="rounded=0;whiteSpace=wrap;html=1;" vertex="1" parent="1">
          <mxGeometry x="80" y="210" width="190" height="60" as="geometry" />
        </mxCell>
        <mxCell id="g9Q7MHYARDUEvGICIznO-4" style="edgeStyle=orthogonalEdgeStyle;rounded=0;orthogonalLoop=1;jettySize=auto;html=1;entryX=0;entryY=0.5;entryDx=0;entryDy=0;curved=1;" edge="1" parent="1" source="g9Q7MHYARDUEvGICIznO-2" target="g9Q7MHYARDUEvGICIznO-3">
          <mxGeometry relative="1" as="geometry" />
        </mxCell>
        <mxCell id="g9Q7MHYARDUEvGICIznO-7" style="edgeStyle=orthogonalEdgeStyle;rounded=0;orthogonalLoop=1;jettySize=auto;html=1;entryX=0;entryY=0.5;entryDx=0;entryDy=0;curved=1;" edge="1" parent="1" source="g9Q7MHYARDUEvGICIznO-2" target="g9Q7MHYARDUEvGICIznO-5">
          <mxGeometry relative="1" as="geometry" />
        </mxCell>
        <mxCell id="g9Q7MHYARDUEvGICIznO-8" style="edgeStyle=orthogonalEdgeStyle;rounded=0;orthogonalLoop=1;jettySize=auto;html=1;entryX=0;entryY=0.5;entryDx=0;entryDy=0;curved=1;" edge="1" parent="1" source="g9Q7MHYARDUEvGICIznO-2" target="g9Q7MHYARDUEvGICIznO-6">
          <mxGeometry relative="1" as="geometry" />
        </mxCell>
        <mxCell id="g9Q7MHYARDUEvGICIznO-2" value="dws_fin_a_p_mkt_dtl_df&lt;div&gt;(销售财务报表A&amp;amp;P MKT明细表)&lt;/div&gt;" style="rounded=0;whiteSpace=wrap;html=1;" vertex="1" parent="1">
          <mxGeometry x="339" y="70" width="150" height="60" as="geometry" />
        </mxCell>
        <mxCell id="g9Q7MHYARDUEvGICIznO-3" value="dwd_fin_mkt_tpm_prvn_dtl_df&lt;div&gt;(MKT TPM预提明细表)&lt;/div&gt;" style="rounded=0;whiteSpace=wrap;html=1;" vertex="1" parent="1">
          <mxGeometry x="630" y="20" width="190" height="60" as="geometry" />
        </mxCell>
        <mxCell id="g9Q7MHYARDUEvGICIznO-5" value="&lt;div style=&quot;background-color: rgb(255, 255, 254); font-family: Consolas, &amp;quot;Courier New&amp;quot;, monospace; font-size: 14px; line-height: 19px; white-space: pre;&quot;&gt;dwd_fin_mkt_a_p_dtl_df&lt;/div&gt;&lt;div style=&quot;background-color: rgb(255, 255, 254); font-family: Consolas, &amp;quot;Courier New&amp;quot;, monospace; font-size: 14px; line-height: 19px; white-space: pre;&quot;&gt;(MKT A&amp;amp;P 费用明细中间表)&lt;/div&gt;" style="rounded=0;whiteSpace=wrap;html=1;" vertex="1" parent="1">
          <mxGeometry x="630" y="140" width="190" height="60" as="geometry" />
        </mxCell>
        <mxCell id="g9Q7MHYARDUEvGICIznO-6" value="&lt;div style=&quot;background-color: rgb(255, 255, 254); font-family: Consolas, &amp;quot;Courier New&amp;quot;, monospace; font-size: 14px; line-height: 19px; white-space: pre;&quot;&gt;dwd_fin_mkt_a_p_bdgt_df&lt;/div&gt;&lt;div style=&quot;background-color: rgb(255, 255, 254); font-family: Consolas, &amp;quot;Courier New&amp;quot;, monospace; font-size: 14px; line-height: 19px; white-space: pre;&quot;&gt;(MKT A&amp;amp;P 预算表)&lt;/div&gt;" style="rounded=0;whiteSpace=wrap;html=1;" vertex="1" parent="1">
          <mxGeometry x="630" y="250" width="190" height="60" as="geometry" />
        </mxCell>
      </root>
    </mxGraphModel>
  </diagram>
</mxfile>
